<?xml version="1.0" standalone="no"?><!DOCTYPE svg PUBLIC "-//W3C//DTD SVG 1.1//EN" "http://www.w3.org/Graphics/SVG/1.1/DTD/svg11.dtd"><svg t="1694487016022" class="icon" viewBox="0 0 1024 1024" version="1.1" xmlns="http://www.w3.org/2000/svg" p-id="5847" xmlns:xlink="http://www.w3.org/1999/xlink" width="64" height="64"><path d="M488 672h-320a24 24 0 0 0 0 48h320a24 24 0 0 0 0-48z m240-430.24h-256a24 24 0 0 0 0 48h256a24 24 0 0 0 0-48z m-368-62.24a24 24 0 0 0-16.96 7.04l-107.52 107.52-50.56-50.88a24 24 0 1 0-33.92 33.92l67.84 67.84a24 24 0 0 0 33.92 0l124.48-124.48a24 24 0 0 0-16.96-40.96z m368 282.88h-256a24 24 0 0 0 0 48h256a24 24 0 0 0 0-48zM294.4 400a24 24 0 0 0-16.96 7.04l-45.28 45.28-45.28-45.28a24 24 0 1 0-33.92 33.92l45.28 45.28-45.28 45.28a24 24 0 1 0 33.92 33.92l45.28-45.28 45.28 45.28a24 24 0 1 0 33.92-33.92l-45.28-45.28 45.28-45.28A24 24 0 0 0 294.4 400z" fill="" p-id="5848"></path><path d="M832 128v392a24 24 0 0 1-48 0V128a16 16 0 0 0-16-16H128a16 16 0 0 0-16 16v768a16 16 0 0 0 16 16h392a24 24 0 0 1 0 48H128a64 64 0 0 1-64-64V128a64 64 0 0 1 64-64h640a64 64 0 0 1 64 64z" fill="" p-id="5849"></path><path d="M955.36 932.64l-96-96a160 160 0 1 0-22.56 22.56l96 96a16 16 0 0 0 22.72-22.72zM608 736a128 128 0 1 1 128 128 128 128 0 0 1-128-128z" fill="#0070FF" p-id="5850"></path></svg>